HIERARCHY
ROOT Root
{
  OFFSET 0.0 0.0 0.0
  CHANNELS 6 Xposition Yposition Zposition Zrotation Yrotation Xrotation
  JOINT Hips
  {
    OFFSET 0.0 100.0 0.0
    CHANNELS 6 Xposition Yposition Zposition Zrotation Yrotation Xrotation
    JOINT Spine1
    {
      OFFSET 5.003913 -0.037094 -0.013727
      CHANNELS 3 Zrotation Yrotation Xrotation
      JOINT Spine2
      {
        OFFSET 7.125363 -1e-06 0.0
        CHANNELS 3 Zrotation Yrotation Xrotation
        JOINT Chest
        {
          OFFSET 7.594027 1e-06 0.0
          CHANNELS 3 Zrotation Yrotation Xrotation
          JOINT Neck1
          {
            OFFSET 26.313086 -0.460272 -0.181672
            CHANNELS 3 Zrotation Yrotation Xrotation
            JOINT Neck2
            {
              OFFSET 8.045911 0.0 0.0
              CHANNELS 3 Zrotation Yrotation Xrotation
              JOINT Head
              {
                OFFSET 6.432774 0.0 0.0
                CHANNELS 3 Zrotation Yrotation Xrotation
                JOINT HeadEnd
                {
                  OFFSET 16.169773 0.06451 0.00362
                  CHANNELS 3 Zrotation Yrotation Xrotation
                }
                JOINT Jaw
                {
                  OFFSET 0.108741 3.12938 0.002639
                  CHANNELS 3 Zrotation Yrotation Xrotation
                }
                JOINT LeftEye
                {
                  OFFSET 4.45173 8.166359 3.206392
                  CHANNELS 3 Zrotation Yrotation Xrotation
                }
                JOINT RightEye
                {
                  OFFSET 4.436895 8.135758 -3.222429
                  CHANNELS 3 Zrotation Yrotation Xrotation
                }
              }
            }
          }
          JOINT LeftShoulder
          {
            OFFSET 23.218927 5.195579 1.621656
            CHANNELS 3 Zrotation Yrotation Xrotation
            JOINT LeftArm
            {
              OFFSET 15.902118 2e-06 -2e-06
              CHANNELS 3 Zrotation Yrotation Xrotation
              JOINT LeftForeArm
              {
                OFFSET 28.739307 0.0 -1e-06
                CHANNELS 3 Zrotation Yrotation Xrotation
                JOINT LeftHand
                {
                  OFFSET 27.093981 -4e-06 0.0
                  CHANNELS 3 Zrotation Yrotation Xrotation
                  JOINT LeftHandThumb1
                  {
                    OFFSET 2.276781 3.380274 0.83384
                    CHANNELS 3 Zrotation Yrotation Xrotation
                    JOINT LeftHandThumb2
                    {
                      OFFSET 4.705309 -1e-06 -1e-06
                      CHANNELS 3 Zrotation Yrotation Xrotation
                      JOINT LeftHandThumb3
                      {
                        OFFSET 2.798515 0.0 3e-06
                        CHANNELS 3 Zrotation Yrotation Xrotation
                        JOINT LeftHandThumbEnd
                        {
                          OFFSET 3.180793 4e-06 -4e-06
                          CHANNELS 3 Zrotation Yrotation Xrotation
                        }
                      }
                    }
                  }
                  JOINT LeftHandIndex1
                  {
                    OFFSET 3.247786 2.352677 0.137192
                    CHANNELS 3 Zrotation Yrotation Xrotation
                    JOINT LeftHandIndex2
                    {
                      OFFSET 6.367095 1e-06 0.0
                      CHANNELS 3 Zrotation Yrotation Xrotation
                      JOINT LeftHandIndex3
                      {
                        OFFSET 3.662364 0.0 0.0
                        CHANNELS 3 Zrotation Yrotation Xrotation
                        JOINT LeftHandIndex4
                        {
                          OFFSET 2.329242 4e-06 -4e-06
                          CHANNELS 3 Zrotation Yrotation Xrotation
                          JOINT LeftHandIndexEnd
                          {
                            OFFSET 2.767823 1e-06 0.0
                            CHANNELS 3 Zrotation Yrotation Xrotation
                          }
                        }
                      }
                    }
                  }
                  JOINT LeftHandMiddle1
                  {
                    OFFSET 3.163612 0.945023 -0.406112
                    CHANNELS 3 Zrotation Yrotation Xrotation
                    JOINT LeftHandMiddle2
                    {
                      OFFSET 6.276789 3e-06 0.0
                      CHANNELS 3 Zrotation Yrotation Xrotation
                      JOINT LeftHandMiddle3
                      {
                        OFFSET 4.35652 -1e-06 4e-06
                        CHANNELS 3 Zrotation Yrotation Xrotation
                        JOINT LeftHandMiddle4
                        {
                          OFFSET 2.996877 0.0 8e-06
                          CHANNELS 3 Zrotation Yrotation Xrotation
                          JOINT LeftHandMiddleEnd
                          {
                            OFFSET 2.323256 3e-06 -4e-06
                            CHANNELS 3 Zrotation Yrotation Xrotation
                          }
                        }
                      }
                    }
                  }
                  JOINT LeftHandRing1
                  {
                    OFFSET 2.882606 -0.309162 0.107445
                    CHANNELS 3 Zrotation Yrotation Xrotation
                    JOINT LeftHandRing2
                    {
                      OFFSET 6.033198 0.0 4e-06
                      CHANNELS 3 Zrotation Yrotation Xrotation
                      JOINT LeftHandRing3
                      {
                        OFFSET 4.350578 3e-06 0.0
                        CHANNELS 3 Zrotation Yrotation Xrotation
                        JOINT LeftHandRing4
                        {
                          OFFSET 2.651321 2e-06 -7e-06
                          CHANNELS 3 Zrotation Yrotation Xrotation
                          JOINT LeftHandRingEnd
                          {
                            OFFSET 1.937663 1e-06 -4e-06
                            CHANNELS 3 Zrotation Yrotation Xrotation
                          }
                        }
                      }
                    }
                  }
                  JOINT LeftHandPinky1
                  {
                    OFFSET 2.865315 -1.525436 0.575687
                    CHANNELS 3 Zrotation Yrotation Xrotation
                    JOINT LeftHandPinky2
                    {
                      OFFSET 5.54936 1e-06 -8e-06
                      CHANNELS 3 Zrotation Yrotation Xrotation
                      JOINT LeftHandPinky3
                      {
                        OFFSET 3.070974 0.0 -4e-06
                        CHANNELS 3 Zrotation Yrotation Xrotation
                        JOINT LeftHandPinky4
                        {
                          OFFSET 1.549672 1e-06 0.0
                          CHANNELS 3 Zrotation Yrotation Xrotation
                          JOINT LeftHandPinkyEnd
                          {
                            OFFSET 1.952123 0.0 0.0
                            CHANNELS 3 Zrotation Yrotation Xrotation
                          }
                        }
                      }
                    }
                  }
                }
              }
            }
          }
          JOINT RightShoulder
          {
            OFFSET 23.161716 5.296122 -1.380114
            CHANNELS 3 Zrotation Yrotation Xrotation
            JOINT RightArm
            {
              OFFSET -16.027195 -2e-06 1.1e-05
              CHANNELS 3 Zrotation Yrotation Xrotation
              JOINT RightForeArm
              {
                OFFSET -28.736639 4e-06 2e-06
                CHANNELS 3 Zrotation Yrotation Xrotation
                JOINT RightHand
                {
                  OFFSET -27.133619 6e-06 0.0
                  CHANNELS 3 Zrotation Yrotation Xrotation
                  JOINT RightHandThumb1
                  {
                    OFFSET -2.274328 -3.351035 -0.83067
                    CHANNELS 3 Zrotation Yrotation Xrotation
                    JOINT RightHandThumb2
                    {
                      OFFSET -4.703594 -3e-06 2e-06
                      CHANNELS 3 Zrotation Yrotation Xrotation
                      JOINT RightHandThumb3
                      {
                        OFFSET -2.794935 -4e-06 -3e-06
                        CHANNELS 3 Zrotation Yrotation Xrotation
                        JOINT RightHandThumbEnd
                        {
                          OFFSET -3.183852 4e-06 1e-06
                          CHANNELS 3 Zrotation Yrotation Xrotation
                        }
                      }
                    }
                  }
                  JOINT RightHandIndex1
                  {
                    OFFSET -3.253496 -2.33755 -0.127667
                    CHANNELS 3 Zrotation Yrotation Xrotation
                    JOINT RightHandIndex2
                    {
                      OFFSET -6.344434 0.0 0.0
                      CHANNELS 3 Zrotation Yrotation Xrotation
                      JOINT RightHandIndex3
                      {
                        OFFSET -3.654871 0.0 -8e-06
                        CHANNELS 3 Zrotation Yrotation Xrotation
                        JOINT RightHandIndex4
                        {
                          OFFSET -2.327586 -1e-06 0.0
                          CHANNELS 3 Zrotation Yrotation Xrotation
                          JOINT RightHandIndexEnd
                          {
                            OFFSET -2.770001 3e-06 8e-06
                            CHANNELS 3 Zrotation Yrotation Xrotation
                          }
                        }
                      }
                    }
                  }
                  JOINT RightHandMiddle1
                  {
                    OFFSET -3.168223 -0.944764 0.411762
                    CHANNELS 3 Zrotation Yrotation Xrotation
                    JOINT RightHandMiddle2
                    {
                      OFFSET -6.266691 -1e-06 -4e-06
                      CHANNELS 3 Zrotation Yrotation Xrotation
                      JOINT RightHandMiddle3
                      {
                        OFFSET -4.348901 0.0 0.0
                        CHANNELS 3 Zrotation Yrotation Xrotation
                        JOINT RightHandMiddle4
                        {
                          OFFSET -3.00024 2e-06 -4e-06
                          CHANNELS 3 Zrotation Yrotation Xrotation
                          JOINT RightHandMiddleEnd
                          {
                            OFFSET -2.321477 -4e-06 -4e-06
                            CHANNELS 3 Zrotation Yrotation Xrotation
                          }
                        }
                      }
                    }
                  }
                  JOINT RightHandRing1
                  {
                    OFFSET -2.885654 0.293261 -0.119232
                    CHANNELS 3 Zrotation Yrotation Xrotation
                    JOINT RightHandRing2
                    {
                      OFFSET -6.032835 -1e-06 -4e-06
                      CHANNELS 3 Zrotation Yrotation Xrotation
                      JOINT RightHandRing3
                      {
                        OFFSET -4.33881 0.0 -4e-06
                        CHANNELS 3 Zrotation Yrotation Xrotation
                        JOINT RightHandRing4
                        {
                          OFFSET -2.654903 -4e-06 -4e-06
                          CHANNELS 3 Zrotation Yrotation Xrotation
                          JOINT RightHandRingEnd
                          {
                            OFFSET -1.935122 0.0 4e-06
                            CHANNELS 3 Zrotation Yrotation Xrotation
                          }
                        }
                      }
                    }
                  }
                  JOINT RightHandPinky1
                  {
                    OFFSET -2.866241 1.503904 -0.60527
                    CHANNELS 3 Zrotation Yrotation Xrotation
                    JOINT RightHandPinky2
                    {
                      OFFSET -5.553177 -2e-06 0.0
                      CHANNELS 3 Zrotation Yrotation Xrotation
                      JOINT RightHandPinky3
                      {
                        OFFSET -3.062664 -1e-06 -4e-06
                        CHANNELS 3 Zrotation Yrotation Xrotation
                        JOINT RightHandPinky4
                        {
                          OFFSET -1.546529 2e-06 4e-06
                          CHANNELS 3 Zrotation Yrotation Xrotation
                          JOINT RightHandPinkyEnd
                          {
                            OFFSET -1.952341 0.0 -4e-06
                            CHANNELS 3 Zrotation Yrotation Xrotation
                          }
                        }
                      }
                    }
                  }
                }
              }
            }
          }
        }
      }
    }
    JOINT LeftLeg
    {
      OFFSET -8.443107 2.567604 10.043214
      CHANNELS 3 Zrotation Yrotation Xrotation
      JOINT LeftShin
      {
        OFFSET 43.229198 1e-06 -1e-06
        CHANNELS 3 Zrotation Yrotation Xrotation
        JOINT LeftFoot
        {
          OFFSET 42.298611 1e-06 1e-06
          CHANNELS 3 Zrotation Yrotation Xrotation
          JOINT LeftToeBase
          {
            OFFSET 14.165858 1e-06 0.0
            CHANNELS 3 Zrotation Yrotation Xrotation
            JOINT LeftToeEnd
            {
              OFFSET 6.7141 -0.234461 0.0
              CHANNELS 3 Zrotation Yrotation Xrotation
            }
          }
        }
      }
    }
    JOINT RightLeg
    {
      OFFSET -8.303923 2.592729 -10.047278
      CHANNELS 3 Zrotation Yrotation Xrotation
      JOINT RightShin
      {
        OFFSET -43.369682 0.0 1e-06
        CHANNELS 3 Zrotation Yrotation Xrotation
        JOINT RightFoot
        {
          OFFSET -42.260784 4e-06 2e-06
          CHANNELS 3 Zrotation Yrotation Xrotation
          JOINT RightToeBase
          {
            OFFSET -14.222245 -2e-06 -1e-06
            CHANNELS 3 Zrotation Yrotation Xrotation
            JOINT RightToeEnd
            {
              OFFSET -6.660062 0.232574 -2e-06
              CHANNELS 3 Zrotation Yrotation Xrotation
            }
          }
        }
      }
    }
  }
}
MOTION
Frames: 5
Frame Time: 0.03333333333333333
0.0 0.0 0.0 0.0 -0.0 0.0 2.95176 48.551212 4.411662 85.204811 -64.864822 90.569595 8.890676 -0.394773 -0.998708 -5.620876 -0.475134 -0.039679 16.98744 2.660326 -0.491487 16.26573 -2.599221 2.735373 -2.865352 0.239252 -1.331146 -28.197838 1.019354 -2.597824 6e-06 -0.0 -0.0 -0.212194 0.003057 -0.037538 -0.177075 0.061387 -0.057306 -0.170413 -0.05553 -0.014692 -47.47105 -61.541836 51.218876 98.830956 -6.828788 -35.75695 9.004107 -1.52023 0.007206 -6.654243 79.412506 -4.304997 17.636637 -26.322744 52.411213 -19.466665 -14.395597 29.410398 -3e-06 -8.774822 -1e-06 15.038667 -17.728321 7.153381 -0.609776 -1.795656 -3.889328 -4.80709 -11.046814 -2.93785 3e-06 -20.976019 -1e-06 -5.019969 -25.03356 -4.031881 6e-06 0.0 -2e-06 -10.634536 -5.686974 -3.565589 10.573277 -17.922955 -3.113901 3e-06 -13.821213 1e-06 -0.501778 -31.181519 -4.027017 -10.858288 -58.377872 7.585145 -13.982719 -7.1502 -2.875043 13.772731 -8.401495 -3.218242 0.347733 -34.211563 0.771655 -0.963029 -17.733376 2.62102 -0.0 -0.0 -0.0 -17.346424 -20.095224 -4.201783 21.757561 -1.638375 3.866428 1e-06 -6.338828 1e-06 -1.697588 -22.591751 -6.194009 -1e-06 -2e-06 -2e-06 155.097229 -74.774956 27.995237 98.918999 1.759515 -14.084495 2.284859 -1.204437 -0.050279 -28.860409 71.083061 -32.169262 22.182114 -20.375895 49.933327 -16.701817 -16.74353 28.476534 -2e-06 -12.690601 -1e-06 17.424095 -18.023859 2.181283 -0.105918 -1.513856 -4.275882 -5.039041 -5.612872 -2.953556 3e-06 -11.020524 -2e-06 -6.111298 -15.895334 -3.840472 -1e-06 1e-06 -1e-06 -10.283371 -5.680288 -4.341839 11.028294 -11.302406 -2.372634 -1.384269 -14.23858 -6.320121 -0.625437 -26.924191 -3.827604 -4.007623 -49.328815 -4.635376 -13.708524 -7.363475 -3.72094 18.14115 -14.052739 -3.242675 6e-06 -18.787271 -3e-06 -0.429713 -8.456046 2.555503 0.0 -0.0 1e-06 -15.923534 -20.094486 -5.473587 30.41921 -7.190823 1.735923 2e-06 -8.162926 0.0 -1.8619 -22.861467 -6.167944 0.0 -2e-06 -1e-06 109.328445 -9.906877 -0.337522 114.443275 0.082983 0.481867 -66.344597 8.836093 10.424373 -21.109598 1.663035 1.571968 -0.999999 -0.0 0.0 -67.716774 -0.335359 -1.431825 109.584427 -0.257372 0.127717 -63.867558 -3.414322 8.063498 -18.305254 0.984947 1.444174 -1.000002 -0.0 0.0 
0.0 0.0 0.0 0.0 -0.0 0.0 3.048012 48.508408 4.440532 84.902672 -64.964241 90.776939 8.808076 -0.30422 -0.948563 -5.706766 -0.446146 0.005689 17.093737 2.651531 -0.372193 16.361589 -2.739354 2.607261 -2.869168 0.248359 -1.377314 -28.162834 1.10533 -2.692388 5e-06 -0.0 -0.0 -0.21846 -0.035289 -0.031079 -0.152596 0.009062 -0.045146 -0.148591 -0.077781 -0.016621 -47.582478 -61.59597 51.667526 99.109993 -6.434122 -36.214951 8.787988 -1.460171 0.001982 -3.163814 79.450829 -0.963714 17.636618 -26.322723 52.411186 -19.466656 -14.395597 29.410389 -3e-06 -8.774819 -2e-06 15.060417 -17.852261 7.23707 -0.609777 -1.795653 -3.889326 -4.807086 -11.046811 -2.93785 4e-06 -20.976011 -0.0 -5.019969 -25.033554 -4.031882 6e-06 0.0 0.0 -10.634531 -5.686968 -3.565588 10.573271 -17.922949 -3.113902 3e-06 -13.821205 1e-06 -0.501777 -31.181505 -4.027013 -10.839194 -58.674896 7.645544 -13.982712 -7.150197 -2.875042 13.772726 -8.401491 -3.218241 0.347734 -34.21154 0.771656 -0.963029 -17.733366 2.621018 -0.0 -0.0 -0.0 -17.346413 -20.095211 -4.201782 21.757555 -1.638376 3.866428 1e-06 -6.338825 1e-06 -1.697587 -22.591738 -6.194007 -1e-06 -4e-06 -4e-06 154.672333 -74.702843 28.600853 98.956116 1.926784 -14.426601 2.178778 -1.211222 -0.046929 -27.389656 71.223862 -30.836102 22.182108 -20.375891 49.933304 -16.701811 -16.743528 28.476526 -2e-06 -12.690601 -1e-06 17.411768 -17.968597 2.219011 -0.105918 -1.513855 -4.27588 -5.039039 -5.612872 -2.953556 3e-06 -11.020525 -0.0 -6.111298 -15.89533 -3.84047 1e-06 -0.0 -0.0 -10.283369 -5.680288 -4.341837 11.028292 -11.302406 -2.372632 -1.38427 -14.238584 -6.32012 -0.625443 -26.924192 -3.827599 -3.972271 -49.477955 -4.561138 -13.708522 -7.363477 -3.720938 18.141146 -14.052739 -3.242674 5e-06 -18.787273 -2e-06 -0.429712 -8.456044 2.555504 -0.0 1e-06 0.0 -15.923532 -20.094482 -5.473582 30.41921 -7.190826 1.735927 2e-06 -8.162927 -0.0 -1.861903 -22.861469 -6.167942 -0.0 -3e-06 -1e-06 109.224518 -9.922123 -0.303527 114.451645 0.069859 0.482833 -66.12664 8.863431 10.58222 -20.97151 1.7024 1.523607 -0.999999 0.0 -0.0 -67.78553 -0.336447 -1.477509 109.505608 -0.238384 0.118619 -63.635036 -3.577084 8.06419 -18.00514 0.962296 1.475178 -1.000002 -0.0 0.0 
0.0 0.0 0.0 0.0 -0.0 0.0 3.108945 48.486206 4.451059 84.806755 -65.032356 90.908112 8.713245 -0.268762 -0.898091 -5.765026 -0.418324 0.049532 17.181133 2.629717 -0.33306 16.478693 -2.81398 2.473218 -2.877196 0.253242 -1.409596 -28.218943 1.114039 -2.776809 7e-06 0.0 -0.0 -0.216633 -0.062604 -0.024279 -0.183413 -0.026289 -0.047434 -0.176256 -0.096211 -0.003507 -47.445156 -61.623402 51.740585 99.320236 -6.127673 -36.332371 8.587877 -1.419834 0.006376 -2.021171 79.259941 -0.021666 17.636629 -26.322731 52.411201 -19.46666 -14.3956 29.410395 -3e-06 -8.774822 -1e-06 15.112533 -17.877571 7.22604 -0.609778 -1.795655 -3.889329 -4.80709 -11.046813 -2.937852 6e-06 -20.976015 -4e-06 -5.019966 -25.03356 -4.031885 6e-06 0.0 0.0 -10.634536 -5.686973 -3.565588 10.573272 -17.922953 -3.113903 2e-06 -13.821211 0.0 -0.501776 -31.181505 -4.027017 -10.724429 -58.799057 7.592483 -13.982716 -7.150199 -2.875043 13.772732 -8.401495 -3.218243 0.347736 -34.211555 0.771653 -0.963028 -17.733372 2.621019 -0.0 -0.0 0.0 -17.346422 -20.095222 -4.201784 21.757561 -1.638376 3.866428 1e-06 -6.338825 -0.0 -1.697587 -22.591745 -6.194008 0.0 -4e-06 -2e-06 154.611145 -74.649139 28.82021 98.802132 2.047393 -14.583527 2.189981 -1.256344 -0.046705 -26.794724 71.387901 -30.120369 22.182117 -20.375898 49.933327 -16.701817 -16.74353 28.476534 -2e-06 -12.690601 -1e-06 17.429077 -17.87993 2.238098 -0.10592 -1.513856 -4.275882 -5.03904 -5.61287 -2.953557 4e-06 -11.020521 -2e-06 -6.111297 -15.89533 -3.840471 -0.0 -0.0 -1e-06 -10.28337 -5.680287 -4.341839 11.028296 -11.302406 -2.372633 -1.384269 -14.238577 -6.320118 -0.625439 -26.924187 -3.827601 -3.941149 -49.553608 -4.474028 -13.708524 -7.363476 -3.72094 18.141148 -14.052739 -3.242674 6e-06 -18.787273 -2e-06 -0.429712 -8.456042 2.555503 0.0 1e-06 1e-06 -15.923536 -20.094482 -5.473587 30.419218 -7.190827 1.735925 1e-06 -8.162929 1e-06 -1.861902 -22.861469 -6.167941 0.0 -2e-06 0.0 109.155441 -9.838104 -0.289259 114.489273 0.077637 0.489453 -66.274872 8.798806 10.629337 -21.052683 1.722989 1.494892 -1.0 0.0 0.0 -67.826447 -0.406595 -1.451575 109.516159 -0.21386 0.129922 -63.750492 -3.563967 7.950742 -17.9398 0.946943 1.490903 -1.000001 0.0 0.0 
0.0 0.0 0.0 0.0 -0.0 0.0 3.113547 48.471611 4.435828 84.735306 -65.132057 91.086914 8.621107 -0.249065 -0.858897 -5.809798 -0.409861 0.073271 17.200239 2.651706 -0.343298 16.556313 -2.876798 2.361472 -2.875743 0.25547 -1.461985 -28.322632 1.115981 -2.841663 5e-06 0.0 0.0 -0.214141 -0.084416 -0.017527 -0.229658 -0.047681 -0.055105 -0.218196 -0.118702 0.016328 -47.310837 -61.614952 51.739326 99.532158 -5.880369 -36.377464 8.37744 -1.405814 0.006217 -1.615557 79.084778 0.43544 17.636629 -26.322729 52.411213 -19.466665 -14.3956 29.410395 -3e-06 -8.774822 -1e-06 15.13483 -17.853325 7.20215 -0.609778 -1.795654 -3.889328 -4.80709 -11.046815 -2.937851 6e-06 -20.976021 -3e-06 -5.019969 -25.033564 -4.031882 6e-06 1e-06 -2e-06 -10.634535 -5.686972 -3.565589 10.573275 -17.922955 -3.113901 3e-06 -13.821209 0.0 -0.501776 -31.181505 -4.027019 -10.65942 -58.836479 7.524116 -13.982719 -7.150199 -2.875043 13.772733 -8.401493 -3.218243 0.347735 -34.211559 0.771654 -0.963028 -17.733374 2.621019 -0.0 -1e-06 0.0 -17.346422 -20.095221 -4.201784 21.757561 -1.638375 3.866428 2e-06 -6.338826 1e-06 -1.697588 -22.591749 -6.194011 -0.0 -4e-06 -4e-06 154.552887 -74.545647 28.924772 98.654762 2.0198 -14.671452 2.267873 -1.284741 -0.047947 -26.864714 71.523308 -30.060858 22.182114 -20.3759 49.933319 -16.701815 -16.74353 28.476536 -2e-06 -12.690601 1e-06 17.456377 -17.819988 2.257701 -0.10592 -1.513856 -4.275882 -5.039041 -5.612873 -2.953555 1e-06 -11.020527 -1e-06 -6.111297 -15.895334 -3.840471 1e-06 -0.0 -0.0 -10.283371 -5.680289 -4.341838 11.028294 -11.302407 -2.372633 -1.38427 -14.238582 -6.32012 -0.62544 -26.924189 -3.827601 -3.931596 -49.637939 -4.380223 -13.708525 -7.363478 -3.720939 18.14115 -14.052742 -3.242676 5e-06 -18.787275 -2e-06 -0.429712 -8.456045 2.555505 0.0 1e-06 0.0 -15.923536 -20.094484 -5.473582 30.419214 -7.190827 1.735924 1e-06 -8.162927 0.0 -1.861904 -22.861475 -6.167943 0.0 -2e-06 -1e-06 109.007202 -9.709099 -0.187723 114.571999 0.093649 0.492809 -66.609413 8.692 10.671695 -21.279484 1.7268 1.486124 -0.999999 -1e-06 -0.0 -67.918999 -0.487562 -1.443933 109.594727 -0.164563 0.14427 -64.089005 -3.588956 7.765001 -18.124296 0.94272 1.497207 -1.000003 0.0 -0.0 
0.0 0.0 0.0 0.0 -0.0 0.0 3.093826 48.47575 4.390626 84.652779 -65.243027 91.26915 8.555163 -0.244287 -0.833828 -5.846905 -0.406193 0.094107 17.182514 2.691888 -0.374466 16.599478 -2.98425 2.275942 -2.863432 0.252485 -1.524188 -28.388247 1.202936 -2.891889 8e-06 -0.0 0.0 -0.213657 -0.111702 -0.007849 -0.268227 -0.073865 -0.055759 -0.251613 -0.148102 0.036136 -47.22224 -61.60041 51.748192 99.687248 -5.673577 -36.435371 8.179873 -1.424401 0.003986 -1.224012 79.005226 0.962078 17.636625 -26.322741 52.411205 -19.466663 -14.395598 29.410395 -2e-06 -8.774822 -1e-06 15.143463 -17.831614 7.177286 -0.609777 -1.795654 -3.889327 -4.807087 -11.046813 -2.937851 2e-06 -20.976021 0.0 -5.019972 -25.033562 -4.03188 6e-06 0.0 -1e-06 -10.634535 -5.686972 -3.565588 10.573272 -17.922955 -3.1139 1e-06 -13.821212 1e-06 -0.501778 -31.181511 -4.027017 -10.664635 -58.846062 7.491787 -13.982713 -7.150198 -2.875041 13.77273 -8.401495 -3.218244 0.347731 -34.211559 0.771657 -0.96303 -17.733372 2.621019 0.0 -1e-06 1e-06 -17.346422 -20.095221 -4.201782 21.757561 -1.638375 3.866428 1e-06 -6.338825 1e-06 -1.69759 -22.591745 -6.194005 -1e-06 -5e-06 -3e-06 154.508423 -74.404808 28.944227 98.576828 1.92918 -14.775778 2.332258 -1.303063 -0.048504 -27.198259 71.617714 -30.348604 22.182117 -20.375898 49.933308 -16.701818 -16.74353 28.47653 -2e-06 -12.690601 -1e-06 17.499454 -17.80584 2.285877 -0.105919 -1.513857 -4.27588 -5.039041 -5.612871 -2.953556 2e-06 -11.020525 -1e-06 -6.111297 -15.895334 -3.840469 -0.0 -0.0 -0.0 -10.283369 -5.680288 -4.341837 11.028296 -11.302408 -2.372633 -1.384269 -14.238581 -6.320118 -0.625439 -26.924191 -3.827603 -3.947114 -49.74136 -4.30501 -13.708524 -7.363476 -3.720938 18.141146 -14.052741 -3.242674 6e-06 -18.787271 -2e-06 -0.429711 -8.456041 2.555504 0.0 -1e-06 -0.0 -15.923536 -20.094484 -5.473581 30.41921 -7.190825 1.735926 2e-06 -8.162927 -0.0 -1.861903 -22.861469 -6.16794 -1e-06 -3e-06 -2e-06 108.804153 -9.587799 -0.041059 114.696922 0.109591 0.48585 -67.092606 8.588243 10.706183 -21.595083 1.723797 1.492144 -0.999999 0.0 -0.0 -68.064911 -0.548127 -1.474584 109.710373 -0.125443 0.151409 -64.517097 -3.571966 7.584287 -18.491457 0.94312 1.499006 -1.000002 -0.0 0.0 
